<?xml version="1.0" standalone="no"?>
<!DOCTYPE svg PUBLIC "-//W3C//DTD SVG 20010904//EN"
 "http://www.w3.org/TR/2001/REC-SVG-20010904/DTD/svg10.dtd">
<svg id="logo" version="1.0" xmlns="http://www.w3.org/2000/svg"
 width="60" height="60" viewBox="0 0 1080.000000 1080.000000"
 preserveAspectRatio="xMidYMid meet" class="fill-current">
 
    <g transform="translate(0.000000,1080.000000) scale(0.100000,-0.100000)" stroke="none">
        <path d="M3795 9039 c-240 -32 -406 -80 -601 -173 -191 -91 -355 -217 -482
        -368 -222 -266 -332 -577 -332 -938 1 -313 91 -592 277 -854 86 -120 342 -372
        574 -564 285 -236 359 -322 396 -464 15 -56 16 -78 6 -141 -32 -224 -187 -327
        -493 -327 -328 0 -807 145 -1171 355 -43 25 -81 45 -84 45 -3 0 -4 -255 -3
        -567 l3 -566 60 -37 c300 -184 797 -293 1250 -276 301 12 504 44 718 113 574
        184 926 603 997 1189 20 156 8 432 -23 564 -88 373 -280 630 -732 980 -411
        319 -515 460 -503 682 8 146 79 250 204 298 73 29 270 39 397 20 176 -26 412
        -103 653 -214 65 -30 119 -54 120 -53 5 5 427 934 431 949 12 43 -419 216
        -706 284 -222 53 -339 66 -621 69 -146 2 -296 -1 -335 -6z"/>

        <path d="M7890 6249 c-947 -66 -1693 -536 -2134 -1345 -202 -370 -326 -778
        -381 -1252 -3 -30 -10 -136 -15 -235 -34 -687 126 -1220 469 -1564 262 -262
        588 -416 1001 -475 123 -17 646 -17 830 0 334 32 693 102 1058 209 67 20 122
        39 122 44 0 7 526 2515 537 2557 l5 22 -994 0 -993 0 -104 -472 c-57 -260
        -106 -483 -109 -495 l-4 -23 372 0 372 0 -5 -22 c-3 -13 -40 -183 -83 -379
        l-78 -357 -131 -21 c-180 -29 -390 -29 -501 -1 -232 59 -374 209 -439 464 -90
        354 -23 927 157 1356 99 235 209 402 367 561 215 214 421 319 709 360 113 16
        422 7 527 -16 204 -43 396 -112 577 -207 54 -28 100 -49 103 -46 3 2 111 227
        240 499 218 458 234 495 218 508 -33 25 -258 129 -358 164 -385 137 -878 198
        -1335 166z"/>
    </g>

    <style>
        svg#logo path { fill: var(black); }
        @media (prefers-color-scheme: dark) {
            svg#logo path { fill: white; }
        }
    </style>
</svg>
